<?xml version="1.0" encoding="UTF-8" standalone="no"?>
<!DOCTYPE svg PUBLIC "-//W3C//DTD SVG 1.1//EN"
 "http://www.w3.org/Graphics/SVG/1.1/DTD/svg11.dtd">
<!-- Generated by graphviz version 2.34.0 (20140121.1604)
 -->
<!-- Title: getNbClauses Pages: 1 -->
<svg width="432pt" height="28pt"
 viewBox="0.00 0.00 432.00 28.00" xmlns="http://www.w3.org/2000/svg" xmlns:xlink="http://www.w3.org/1999/xlink">
<g id="graph0" class="graph" transform="scale(1 1) rotate(0) translate(4 24)">
<title>getNbClauses</title>
<!-- Node1 -->
<g id="node1" class="node"><title>Node1</title>
<polygon fill="#bfbfbf" stroke="black" points="0.5,-0.5 0.5,-19.5 83.5,-19.5 83.5,-0.5 0.5,-0.5"/>
<text text-anchor="middle" x="42" y="-7.5" font-family="Helvetica.ttf" font-size="10.00">getNbClauses</text>
</g>
<!-- Node2 -->
<g id="node2" class="node"><title>Node2</title>
<g id="a_node2"><a xlink:href="classSolver.html#acda01ea8a4bf261df678b4a5c17a8106" target="_top" xlink:title="Check if our current solution is one solution of the Problem. ">
<polygon fill="none" stroke="black" points="120.5,-0.5 120.5,-19.5 219.5,-19.5 219.5,-0.5 120.5,-0.5"/>
<text text-anchor="middle" x="170" y="-7.5" font-family="Helvetica.ttf" font-size="10.00">Solver::isSolution</text>
</a>
</g>
</g>
<!-- Node1&#45;&gt;Node2 -->
<g id="edge1" class="edge"><title>Node1&#45;&gt;Node2</title>
<path fill="none" stroke="midnightblue" d="M93.6313,-10C102.376,-10 111.451,-10 120.147,-10"/>
<polygon fill="midnightblue" stroke="midnightblue" points="93.5608,-6.5001 83.5608,-10 93.5607,-13.5001 93.5608,-6.5001"/>
</g>
<!-- Node3 -->
<g id="node3" class="node"><title>Node3</title>
<g id="a_node3"><a xlink:href="Main_8cpp.html#a1271dea8a50555527b7bedabbb73d03d" target="_top" xlink:title="Useful to display s SATISFIABLE and the solution or s INSATISFIABLE otherwise. ">
<polygon fill="none" stroke="black" points="256.5,-0.5 256.5,-19.5 345.5,-19.5 345.5,-0.5 256.5,-0.5"/>
<text text-anchor="middle" x="301" y="-7.5" font-family="Helvetica.ttf" font-size="10.00">displaySolution</text>
</a>
</g>
</g>
<!-- Node2&#45;&gt;Node3 -->
<g id="edge2" class="edge"><title>Node2&#45;&gt;Node3</title>
<path fill="none" stroke="midnightblue" d="M230.026,-10C238.852,-10 247.814,-10 256.248,-10"/>
<polygon fill="midnightblue" stroke="midnightblue" points="229.769,-6.5001 219.769,-10 229.769,-13.5001 229.769,-6.5001"/>
</g>
<!-- Node4 -->
<g id="node4" class="node"><title>Node4</title>
<g id="a_node4"><a xlink:href="Main_8cpp.html#a3c04138a5bfe5d72780bb7e82a18e627" target="_top" xlink:title="It&#39;s the beginning of this program. ">
<polygon fill="none" stroke="black" points="382.5,-0.5 382.5,-19.5 423.5,-19.5 423.5,-0.5 382.5,-0.5"/>
<text text-anchor="middle" x="403" y="-7.5" font-family="Helvetica.ttf" font-size="10.00">main</text>
</a>
</g>
</g>
<!-- Node3&#45;&gt;Node4 -->
<g id="edge3" class="edge"><title>Node3&#45;&gt;Node4</title>
<path fill="none" stroke="midnightblue" d="M355.861,-10C365.337,-10 374.627,-10 382.359,-10"/>
<polygon fill="midnightblue" stroke="midnightblue" points="355.571,-6.5001 345.571,-10 355.571,-13.5001 355.571,-6.5001"/>
</g>
</g>
</svg>
