<?xml version="1.0" encoding="UTF-8" standalone="no"?>
<!DOCTYPE svg PUBLIC "-//W3C//DTD SVG 1.1//EN"
 "http://www.w3.org/Graphics/SVG/1.1/DTD/svg11.dtd">
<!-- Generated by graphviz version 2.34.0 (20140121.1604)
 -->
<!-- Title: isSolution Pages: 1 -->
<svg width="276pt" height="28pt"
 viewBox="0.00 0.00 276.00 28.00" xmlns="http://www.w3.org/2000/svg" xmlns:xlink="http://www.w3.org/1999/xlink">
<g id="graph0" class="graph" transform="scale(1 1) rotate(0) translate(4 24)">
<title>isSolution</title>
<!-- Node1 -->
<g id="node1" class="node"><title>Node1</title>
<polygon fill="#bfbfbf" stroke="black" points="0.5,-0.5 0.5,-19.5 63.5,-19.5 63.5,-0.5 0.5,-0.5"/>
<text text-anchor="middle" x="32" y="-7.5" font-family="Helvetica.ttf" font-size="10.00">isSolution</text>
</g>
<!-- Node2 -->
<g id="node2" class="node"><title>Node2</title>
<g id="a_node2"><a xlink:href="Main_8cpp.html#a1271dea8a50555527b7bedabbb73d03d" target="_top" xlink:title="Useful to display s SATISFIABLE and the solution or s INSATISFIABLE otherwise. ">
<polygon fill="none" stroke="black" points="100.5,-0.5 100.5,-19.5 189.5,-19.5 189.5,-0.5 100.5,-0.5"/>
<text text-anchor="middle" x="145" y="-7.5" font-family="Helvetica.ttf" font-size="10.00">displaySolution</text>
</a>
</g>
</g>
<!-- Node1&#45;&gt;Node2 -->
<g id="edge1" class="edge"><title>Node1&#45;&gt;Node2</title>
<path fill="none" stroke="midnightblue" d="M73.7925,-10C82.384,-10 91.4822,-10 100.18,-10"/>
<polygon fill="midnightblue" stroke="midnightblue" points="73.6251,-6.5001 63.6251,-10 73.625,-13.5001 73.6251,-6.5001"/>
</g>
<!-- Node3 -->
<g id="node3" class="node"><title>Node3</title>
<g id="a_node3"><a xlink:href="Main_8cpp.html#a3c04138a5bfe5d72780bb7e82a18e627" target="_top" xlink:title="It&#39;s the beginning of this program. ">
<polygon fill="none" stroke="black" points="226.5,-0.5 226.5,-19.5 267.5,-19.5 267.5,-0.5 226.5,-0.5"/>
<text text-anchor="middle" x="247" y="-7.5" font-family="Helvetica.ttf" font-size="10.00">main</text>
</a>
</g>
</g>
<!-- Node2&#45;&gt;Node3 -->
<g id="edge2" class="edge"><title>Node2&#45;&gt;Node3</title>
<path fill="none" stroke="midnightblue" d="M199.861,-10C209.337,-10 218.627,-10 226.359,-10"/>
<polygon fill="midnightblue" stroke="midnightblue" points="199.571,-6.5001 189.571,-10 199.571,-13.5001 199.571,-6.5001"/>
</g>
</g>
</svg>
