<?xml version="1.0" encoding="UTF-8" standalone="no"?>
<!DOCTYPE svg PUBLIC "-//W3C//DTD SVG 1.1//EN"
 "http://www.w3.org/Graphics/SVG/1.1/DTD/svg11.dtd">
<!-- Generated by graphviz version 2.34.0 (20140121.1604)
 -->
<!-- Title: isSolution Pages: 1 -->
<svg width="238pt" height="66pt"
 viewBox="0.00 0.00 238.00 66.00" xmlns="http://www.w3.org/2000/svg" xmlns:xlink="http://www.w3.org/1999/xlink">
<g id="graph0" class="graph" transform="scale(1 1) rotate(0) translate(4 62)">
<title>isSolution</title>
<!-- Node1 -->
<g id="node1" class="node"><title>Node1</title>
<polygon fill="#bfbfbf" stroke="black" points="0.5,-19.5 0.5,-38.5 63.5,-38.5 63.5,-19.5 0.5,-19.5"/>
<text text-anchor="middle" x="32" y="-26.5" font-family="Helvetica.ttf" font-size="10.00">isSolution</text>
</g>
<!-- Node2 -->
<g id="node2" class="node"><title>Node2</title>
<g id="a_node2"><a xlink:href="classProblem.html#af18b83d5f9e0cb7c35f100346f62aa8d" target="_top" xlink:title="We can get the number of Clauses in the Problem. ">
<polygon fill="none" stroke="black" points="100.5,-38.5 100.5,-57.5 229.5,-57.5 229.5,-38.5 100.5,-38.5"/>
<text text-anchor="middle" x="165" y="-45.5" font-family="Helvetica.ttf" font-size="10.00">Problem::getNbClauses</text>
</a>
</g>
</g>
<!-- Node1&#45;&gt;Node2 -->
<g id="edge1" class="edge"><title>Node1&#45;&gt;Node2</title>
<path fill="none" stroke="midnightblue" d="M63.7137,-33.4547C71.822,-34.6307 80.9323,-35.952 90.2693,-37.3062"/>
<polygon fill="midnightblue" stroke="midnightblue" points="90.0543,-40.8116 100.453,-38.7833 91.0591,-33.8841 90.0543,-40.8116"/>
</g>
<!-- Node3 -->
<g id="node3" class="node"><title>Node3</title>
<g id="a_node3"><a xlink:href="classProblem.html#a67b23140b2e80145a0671a87183e753d" target="_top" xlink:title="We can get a reference to the i&#45;th Clause of the Problem. ">
<polygon fill="none" stroke="black" points="110,-0.5 110,-19.5 220,-19.5 220,-0.5 110,-0.5"/>
<text text-anchor="middle" x="165" y="-7.5" font-family="Helvetica.ttf" font-size="10.00">Problem::getClause</text>
</a>
</g>
</g>
<!-- Node1&#45;&gt;Node3 -->
<g id="edge2" class="edge"><title>Node1&#45;&gt;Node3</title>
<path fill="none" stroke="midnightblue" d="M63.7137,-24.5453C74.574,-22.9702 87.2318,-21.1343 99.8244,-19.3079"/>
<polygon fill="midnightblue" stroke="midnightblue" points="100.48,-22.7496 109.874,-17.8504 99.4749,-15.8221 100.48,-22.7496"/>
</g>
</g>
</svg>
