<?xml version="1.0" encoding="UTF-8" standalone="no"?>
<!DOCTYPE svg PUBLIC "-//W3C//DTD SVG 1.1//EN"
 "http://www.w3.org/Graphics/SVG/1.1/DTD/svg11.dtd">
<!-- Generated by graphviz version 2.34.0 (20140121.1604)
 -->
<!-- Title: isOpen Pages: 1 -->
<svg width="210pt" height="66pt"
 viewBox="0.00 0.00 210.00 66.00" xmlns="http://www.w3.org/2000/svg" xmlns:xlink="http://www.w3.org/1999/xlink">
<g id="graph0" class="graph" transform="scale(1 1) rotate(0) translate(4 62)">
<title>isOpen</title>
<!-- Node1 -->
<g id="node1" class="node"><title>Node1</title>
<polygon fill="#bfbfbf" stroke="black" points="0,-19.5 0,-38.5 50,-38.5 50,-19.5 0,-19.5"/>
<text text-anchor="middle" x="25" y="-26.5" font-family="Helvetica.ttf" font-size="10.00">isOpen</text>
</g>
<!-- Node2 -->
<g id="node2" class="node"><title>Node2</title>
<g id="a_node2"><a xlink:href="classClause.html#af62d60cb85e53417cfa9412e93bca2fa" target="_top" xlink:title="We can get the ident&#45;th Variable. ">
<polygon fill="none" stroke="black" points="86.5,-38.5 86.5,-57.5 201.5,-57.5 201.5,-38.5 86.5,-38.5"/>
<text text-anchor="middle" x="144" y="-45.5" font-family="Helvetica.ttf" font-size="10.00">Clause::getVariables</text>
</a>
</g>
</g>
<!-- Node1&#45;&gt;Node2 -->
<g id="edge1" class="edge"><title>Node1&#45;&gt;Node2</title>
<path fill="none" stroke="midnightblue" d="M50.2425,-32.9368C58.0089,-34.198 67.019,-35.6612 76.3104,-37.1701"/>
<polygon fill="midnightblue" stroke="midnightblue" points="76.0255,-40.6696 86.4572,-38.8178 77.1476,-33.7601 76.0255,-40.6696"/>
</g>
<!-- Node3 -->
<g id="node3" class="node"><title>Node3</title>
<g id="a_node3"><a xlink:href="classVariable.html#aeee842363db67294da0babed545b9dcd" target="_top" xlink:title="to get the value of the variable. ">
<polygon fill="none" stroke="black" points="92,-0.5 92,-19.5 196,-19.5 196,-0.5 92,-0.5"/>
<text text-anchor="middle" x="144" y="-7.5" font-family="Helvetica.ttf" font-size="10.00">Variable::getValue</text>
</a>
</g>
</g>
<!-- Node1&#45;&gt;Node3 -->
<g id="edge2" class="edge"><title>Node1&#45;&gt;Node3</title>
<path fill="none" stroke="midnightblue" d="M50.2425,-25.0632C59.4668,-23.5652 70.4456,-21.7823 81.5662,-19.9764"/>
<polygon fill="midnightblue" stroke="midnightblue" points="82.4629,-23.3767 91.7725,-18.319 81.3408,-16.4673 82.4629,-23.3767"/>
</g>
</g>
</svg>
