<?xml version="1.0" encoding="UTF-8" standalone="no"?>
<!DOCTYPE svg PUBLIC "-//W3C//DTD SVG 1.1//EN"
 "http://www.w3.org/Graphics/SVG/1.1/DTD/svg11.dtd">
<!-- Generated by graphviz version 2.34.0 (20140121.1604)
 -->
<!-- Title: Problem Pages: 1 -->
<svg width="149pt" height="498pt"
 viewBox="0.00 0.00 149.00 498.00" xmlns="http://www.w3.org/2000/svg" xmlns:xlink="http://www.w3.org/1999/xlink">
<g id="graph0" class="graph" transform="scale(1 1) rotate(0) translate(4 494)">
<title>Problem</title>
<!-- Node1 -->
<g id="node1" class="node"><title>Node1</title>
<polygon fill="#bfbfbf" stroke="black" points="-0.5,-0.5 -0.5,-123.5 108.5,-123.5 108.5,-0.5 -0.5,-0.5"/>
<text text-anchor="middle" x="54" y="-111.5" font-family="Helvetica.ttf" font-size="10.00">Problem</text>
<polyline fill="none" stroke="black" points="-0.5,-104.5 108.5,-104.5 "/>
<text text-anchor="start" x="7.5" y="-92.5" font-family="Helvetica.ttf" font-size="10.00">&#45; nbClauses</text>
<text text-anchor="start" x="7.5" y="-81.5" font-family="Helvetica.ttf" font-size="10.00">&#45; nbVariables</text>
<polyline fill="none" stroke="black" points="-0.5,-74.5 108.5,-74.5 "/>
<text text-anchor="start" x="7.5" y="-62.5" font-family="Helvetica.ttf" font-size="10.00">+ Problem()</text>
<text text-anchor="start" x="7.5" y="-51.5" font-family="Helvetica.ttf" font-size="10.00">+ Problem()</text>
<text text-anchor="start" x="7.5" y="-40.5" font-family="Helvetica.ttf" font-size="10.00">+ display()</text>
<text text-anchor="start" x="7.5" y="-29.5" font-family="Helvetica.ttf" font-size="10.00">+ getClause()</text>
<text text-anchor="start" x="7.5" y="-18.5" font-family="Helvetica.ttf" font-size="10.00">+ getNbClauses()</text>
<text text-anchor="start" x="7.5" y="-7.5" font-family="Helvetica.ttf" font-size="10.00">+ getNbVariables()</text>
</g>
<!-- Node2 -->
<g id="node2" class="node"><title>Node2</title>
<g id="a_node2"><a xlink:href="classClause.html" target="_top" xlink:title="Xij are what we call Variable and one &quot;line&quot; is a Clause. ">
<polygon fill="none" stroke="black" points="6.5,-172.5 6.5,-295.5 101.5,-295.5 101.5,-172.5 6.5,-172.5"/>
<text text-anchor="middle" x="54" y="-283.5" font-family="Helvetica.ttf" font-size="10.00">Clause</text>
<polyline fill="none" stroke="black" points="6.5,-276.5 101.5,-276.5 "/>
<text text-anchor="start" x="14.5" y="-264.5" font-family="Helvetica.ttf" font-size="10.00">&#45; nbVariables</text>
<polyline fill="none" stroke="black" points="6.5,-257.5 101.5,-257.5 "/>
<text text-anchor="start" x="14.5" y="-245.5" font-family="Helvetica.ttf" font-size="10.00">+ Clause()</text>
<text text-anchor="start" x="14.5" y="-234.5" font-family="Helvetica.ttf" font-size="10.00">+ Clause()</text>
<text text-anchor="start" x="14.5" y="-223.5" font-family="Helvetica.ttf" font-size="10.00">+ Clause()</text>
<text text-anchor="start" x="14.5" y="-212.5" font-family="Helvetica.ttf" font-size="10.00">+ addVariable()</text>
<text text-anchor="start" x="14.5" y="-201.5" font-family="Helvetica.ttf" font-size="10.00">+ display()</text>
<text text-anchor="start" x="14.5" y="-190.5" font-family="Helvetica.ttf" font-size="10.00">+ getVariables()</text>
<text text-anchor="start" x="14.5" y="-179.5" font-family="Helvetica.ttf" font-size="10.00">+ size()</text>
</a>
</g>
</g>
<!-- Node2&#45;&gt;Node1 -->
<g id="edge1" class="edge"><title>Node2&#45;&gt;Node1</title>
<path fill="none" stroke="#404040" d="M54,-172.106C54,-160.439 54,-148.111 54,-136.106"/>
<polygon fill="none" stroke="#404040" points="54.0001,-135.754 50,-129.754 54,-123.754 58,-129.754 54.0001,-135.754"/>
<text text-anchor="middle" x="94" y="-145.5" font-family="Helvetica.ttf" font-size="10.00"> &#45;arrayOfClauses</text>
</g>
<!-- Node3 -->
<g id="node3" class="node"><title>Node3</title>
<g id="a_node3"><a xlink:href="classVariable.html" target="_top" xlink:title="each x is a variable or a negation of a variable, and each variable can appear multiple times in the ...">
<polygon fill="none" stroke="black" points="15,-344.5 15,-489.5 93,-489.5 93,-344.5 15,-344.5"/>
<text text-anchor="middle" x="54" y="-477.5" font-family="Helvetica.ttf" font-size="10.00">Variable</text>
<polyline fill="none" stroke="black" points="15,-470.5 93,-470.5 "/>
<text text-anchor="start" x="23" y="-458.5" font-family="Helvetica.ttf" font-size="10.00">&#45; num</text>
<text text-anchor="start" x="23" y="-447.5" font-family="Helvetica.ttf" font-size="10.00">&#45; value</text>
<polyline fill="none" stroke="black" points="15,-440.5 93,-440.5 "/>
<text text-anchor="start" x="23" y="-428.5" font-family="Helvetica.ttf" font-size="10.00">+ Variable()</text>
<text text-anchor="start" x="23" y="-417.5" font-family="Helvetica.ttf" font-size="10.00">+ Variable()</text>
<text text-anchor="start" x="23" y="-406.5" font-family="Helvetica.ttf" font-size="10.00">+ Variable()</text>
<text text-anchor="start" x="23" y="-395.5" font-family="Helvetica.ttf" font-size="10.00">+ beEqual()</text>
<text text-anchor="start" x="23" y="-384.5" font-family="Helvetica.ttf" font-size="10.00">+ display()</text>
<text text-anchor="start" x="23" y="-373.5" font-family="Helvetica.ttf" font-size="10.00">+ getNum()</text>
<text text-anchor="start" x="23" y="-362.5" font-family="Helvetica.ttf" font-size="10.00">+ getValue()</text>
<text text-anchor="start" x="23" y="-351.5" font-family="Helvetica.ttf" font-size="10.00">+ reverse()</text>
</a>
</g>
</g>
<!-- Node3&#45;&gt;Node2 -->
<g id="edge2" class="edge"><title>Node3&#45;&gt;Node2</title>
<path fill="none" stroke="#404040" d="M54,-344.464C54,-332.437 54,-319.941 54,-307.88"/>
<polygon fill="none" stroke="#404040" points="54.0001,-307.506 50,-301.506 54,-295.506 58,-301.506 54.0001,-307.506"/>
<text text-anchor="middle" x="97.5" y="-317.5" font-family="Helvetica.ttf" font-size="10.00"> &#45;arrayOfVariables</text>
</g>
</g>
</svg>
