<?xml version="1.0" encoding="UTF-8" standalone="no"?>
<!DOCTYPE svg PUBLIC "-//W3C//DTD SVG 1.1//EN"
 "http://www.w3.org/Graphics/SVG/1.1/DTD/svg11.dtd">
<!-- Generated by graphviz version 2.34.0 (20140121.1604)
 -->
<!-- Title: getClause Pages: 1 -->
<svg width="414pt" height="28pt"
 viewBox="0.00 0.00 414.00 28.00" xmlns="http://www.w3.org/2000/svg" xmlns:xlink="http://www.w3.org/1999/xlink">
<g id="graph0" class="graph" transform="scale(1 1) rotate(0) translate(4 24)">
<title>getClause</title>
<!-- Node1 -->
<g id="node1" class="node"><title>Node1</title>
<polygon fill="#bfbfbf" stroke="black" points="0.5,-0.5 0.5,-19.5 65.5,-19.5 65.5,-0.5 0.5,-0.5"/>
<text text-anchor="middle" x="33" y="-7.5" font-family="Helvetica.ttf" font-size="10.00">getClause</text>
</g>
<!-- Node2 -->
<g id="node2" class="node"><title>Node2</title>
<g id="a_node2"><a xlink:href="classSolver.html#acda01ea8a4bf261df678b4a5c17a8106" target="_top" xlink:title="Check if our current solution is one solution of the Problem. ">
<polygon fill="none" stroke="black" points="102.5,-0.5 102.5,-19.5 201.5,-19.5 201.5,-0.5 102.5,-0.5"/>
<text text-anchor="middle" x="152" y="-7.5" font-family="Helvetica.ttf" font-size="10.00">Solver::isSolution</text>
</a>
</g>
</g>
<!-- Node1&#45;&gt;Node2 -->
<g id="edge1" class="edge"><title>Node1&#45;&gt;Node2</title>
<path fill="none" stroke="midnightblue" d="M75.7717,-10C84.3163,-10 93.3808,-10 102.148,-10"/>
<polygon fill="midnightblue" stroke="midnightblue" points="75.6619,-6.5001 65.6619,-10 75.6619,-13.5001 75.6619,-6.5001"/>
</g>
<!-- Node3 -->
<g id="node3" class="node"><title>Node3</title>
<g id="a_node3"><a xlink:href="Main_8cpp.html#a1271dea8a50555527b7bedabbb73d03d" target="_top" xlink:title="Useful to display s SATISFIABLE and the solution or s INSATISFIABLE otherwise. ">
<polygon fill="none" stroke="black" points="238.5,-0.5 238.5,-19.5 327.5,-19.5 327.5,-0.5 238.5,-0.5"/>
<text text-anchor="middle" x="283" y="-7.5" font-family="Helvetica.ttf" font-size="10.00">displaySolution</text>
</a>
</g>
</g>
<!-- Node2&#45;&gt;Node3 -->
<g id="edge2" class="edge"><title>Node2&#45;&gt;Node3</title>
<path fill="none" stroke="midnightblue" d="M212.026,-10C220.852,-10 229.814,-10 238.248,-10"/>
<polygon fill="midnightblue" stroke="midnightblue" points="211.769,-6.5001 201.769,-10 211.769,-13.5001 211.769,-6.5001"/>
</g>
<!-- Node4 -->
<g id="node4" class="node"><title>Node4</title>
<g id="a_node4"><a xlink:href="Main_8cpp.html#a3c04138a5bfe5d72780bb7e82a18e627" target="_top" xlink:title="It&#39;s the beginning of this program. ">
<polygon fill="none" stroke="black" points="364.5,-0.5 364.5,-19.5 405.5,-19.5 405.5,-0.5 364.5,-0.5"/>
<text text-anchor="middle" x="385" y="-7.5" font-family="Helvetica.ttf" font-size="10.00">main</text>
</a>
</g>
</g>
<!-- Node3&#45;&gt;Node4 -->
<g id="edge3" class="edge"><title>Node3&#45;&gt;Node4</title>
<path fill="none" stroke="midnightblue" d="M337.861,-10C347.337,-10 356.627,-10 364.359,-10"/>
<polygon fill="midnightblue" stroke="midnightblue" points="337.571,-6.5001 327.571,-10 337.571,-13.5001 337.571,-6.5001"/>
</g>
</g>
</svg>
