<?xml version="1.0" encoding="UTF-8" standalone="no"?>
<!DOCTYPE svg PUBLIC "-//W3C//DTD SVG 1.1//EN"
 "http://www.w3.org/Graphics/SVG/1.1/DTD/svg11.dtd">
<!-- Generated by graphviz version 2.34.0 (20140121.1604)
 -->
<!-- Title: Clause Pages: 1 -->
<svg width="142pt" height="326pt"
 viewBox="0.00 0.00 142.00 326.00" xmlns="http://www.w3.org/2000/svg" xmlns:xlink="http://www.w3.org/1999/xlink">
<g id="graph0" class="graph" transform="scale(1 1) rotate(0) translate(4 322)">
<title>Clause</title>
<!-- Node1 -->
<g id="node1" class="node"><title>Node1</title>
<polygon fill="#bfbfbf" stroke="black" points="-0.5,-0.5 -0.5,-123.5 94.5,-123.5 94.5,-0.5 -0.5,-0.5"/>
<text text-anchor="middle" x="47" y="-111.5" font-family="Helvetica.ttf" font-size="10.00">Clause</text>
<polyline fill="none" stroke="black" points="-0.5,-104.5 94.5,-104.5 "/>
<text text-anchor="start" x="7.5" y="-92.5" font-family="Helvetica.ttf" font-size="10.00">&#45; nbVariables</text>
<polyline fill="none" stroke="black" points="-0.5,-85.5 94.5,-85.5 "/>
<text text-anchor="start" x="7.5" y="-73.5" font-family="Helvetica.ttf" font-size="10.00">+ Clause()</text>
<text text-anchor="start" x="7.5" y="-62.5" font-family="Helvetica.ttf" font-size="10.00">+ Clause()</text>
<text text-anchor="start" x="7.5" y="-51.5" font-family="Helvetica.ttf" font-size="10.00">+ Clause()</text>
<text text-anchor="start" x="7.5" y="-40.5" font-family="Helvetica.ttf" font-size="10.00">+ addVariable()</text>
<text text-anchor="start" x="7.5" y="-29.5" font-family="Helvetica.ttf" font-size="10.00">+ display()</text>
<text text-anchor="start" x="7.5" y="-18.5" font-family="Helvetica.ttf" font-size="10.00">+ getVariables()</text>
<text text-anchor="start" x="7.5" y="-7.5" font-family="Helvetica.ttf" font-size="10.00">+ size()</text>
</g>
<!-- Node2 -->
<g id="node2" class="node"><title>Node2</title>
<g id="a_node2"><a xlink:href="classVariable.html" target="_top" xlink:title="each x is a variable or a negation of a variable, and each variable can appear multiple times in the ...">
<polygon fill="none" stroke="black" points="8,-172.5 8,-317.5 86,-317.5 86,-172.5 8,-172.5"/>
<text text-anchor="middle" x="47" y="-305.5" font-family="Helvetica.ttf" font-size="10.00">Variable</text>
<polyline fill="none" stroke="black" points="8,-298.5 86,-298.5 "/>
<text text-anchor="start" x="16" y="-286.5" font-family="Helvetica.ttf" font-size="10.00">&#45; num</text>
<text text-anchor="start" x="16" y="-275.5" font-family="Helvetica.ttf" font-size="10.00">&#45; value</text>
<polyline fill="none" stroke="black" points="8,-268.5 86,-268.5 "/>
<text text-anchor="start" x="16" y="-256.5" font-family="Helvetica.ttf" font-size="10.00">+ Variable()</text>
<text text-anchor="start" x="16" y="-245.5" font-family="Helvetica.ttf" font-size="10.00">+ Variable()</text>
<text text-anchor="start" x="16" y="-234.5" font-family="Helvetica.ttf" font-size="10.00">+ Variable()</text>
<text text-anchor="start" x="16" y="-223.5" font-family="Helvetica.ttf" font-size="10.00">+ beEqual()</text>
<text text-anchor="start" x="16" y="-212.5" font-family="Helvetica.ttf" font-size="10.00">+ display()</text>
<text text-anchor="start" x="16" y="-201.5" font-family="Helvetica.ttf" font-size="10.00">+ getNum()</text>
<text text-anchor="start" x="16" y="-190.5" font-family="Helvetica.ttf" font-size="10.00">+ getValue()</text>
<text text-anchor="start" x="16" y="-179.5" font-family="Helvetica.ttf" font-size="10.00">+ reverse()</text>
</a>
</g>
</g>
<!-- Node2&#45;&gt;Node1 -->
<g id="edge1" class="edge"><title>Node2&#45;&gt;Node1</title>
<path fill="none" stroke="#404040" d="M47,-172.464C47,-160.437 47,-147.941 47,-135.88"/>
<polygon fill="none" stroke="#404040" points="47.0001,-135.506 43,-129.506 47,-123.506 51,-129.506 47.0001,-135.506"/>
<text text-anchor="middle" x="90.5" y="-145.5" font-family="Helvetica.ttf" font-size="10.00"> &#45;arrayOfVariables</text>
</g>
</g>
</svg>
