<?xml version="1.0" encoding="UTF-8" standalone="no"?>
<!DOCTYPE svg PUBLIC "-//W3C//DTD SVG 1.1//EN"
 "http://www.w3.org/Graphics/SVG/1.1/DTD/svg11.dtd">
<!-- Generated by graphviz version 2.34.0 (20140121.1604)
 -->
<!-- Title: Problem Pages: 1 -->
<svg width="212pt" height="66pt"
 viewBox="0.00 0.00 212.00 66.00" xmlns="http://www.w3.org/2000/svg" xmlns:xlink="http://www.w3.org/1999/xlink">
<g id="graph0" class="graph" transform="scale(1 1) rotate(0) translate(4 62)">
<title>Problem</title>
<!-- Node1 -->
<g id="node1" class="node"><title>Node1</title>
<polygon fill="#bfbfbf" stroke="black" points="0,-19.5 0,-38.5 56,-38.5 56,-19.5 0,-19.5"/>
<text text-anchor="middle" x="28" y="-26.5" font-family="Helvetica.ttf" font-size="10.00">Problem</text>
</g>
<!-- Node2 -->
<g id="node2" class="node"><title>Node2</title>
<g id="a_node2"><a xlink:href="classClause.html#ae28edef701491dfdc219320692a885cc" target="_top" xlink:title="We can add a Variable directly to our Clause. ">
<polygon fill="none" stroke="black" points="92,-38.5 92,-57.5 204,-57.5 204,-38.5 92,-38.5"/>
<text text-anchor="middle" x="148" y="-45.5" font-family="Helvetica.ttf" font-size="10.00">Clause::addVariable</text>
</a>
</g>
</g>
<!-- Node1&#45;&gt;Node2 -->
<g id="edge1" class="edge"><title>Node1&#45;&gt;Node2</title>
<path fill="none" stroke="midnightblue" d="M56.0716,-33.359C63.7837,-34.6008 72.5375,-36.0103 81.4936,-37.4524"/>
<polygon fill="midnightblue" stroke="midnightblue" points="81.2175,-40.9529 91.6467,-39.0872 82.3303,-34.0419 81.2175,-40.9529"/>
</g>
<!-- Node3 -->
<g id="node3" class="node"><title>Node3</title>
<g id="a_node3"><a xlink:href="classClause.html#aac782da1f912bceb5d8ad00c8dc892ac" target="_top" xlink:title="We can get the size of the array in the clause. ">
<polygon fill="none" stroke="black" points="111,-0.5 111,-19.5 185,-19.5 185,-0.5 111,-0.5"/>
<text text-anchor="middle" x="148" y="-7.5" font-family="Helvetica.ttf" font-size="10.00">Clause::size</text>
</a>
</g>
</g>
<!-- Node1&#45;&gt;Node3 -->
<g id="edge2" class="edge"><title>Node1&#45;&gt;Node3</title>
<path fill="none" stroke="midnightblue" d="M56.0716,-24.641C69.2293,-22.5224 85.4186,-19.9156 100.473,-17.4917"/>
<polygon fill="midnightblue" stroke="midnightblue" points="101.346,-20.8963 110.662,-15.851 100.233,-13.9853 101.346,-20.8963"/>
</g>
</g>
</svg>
