<?xml version="1.0" encoding="UTF-8" standalone="no"?>
<!DOCTYPE svg PUBLIC "-//W3C//DTD SVG 1.1//EN"
 "http://www.w3.org/Graphics/SVG/1.1/DTD/svg11.dtd">
<!-- Generated by graphviz version 2.34.0 (20140121.1604)
 -->
<!-- Title: Headers/Clause.h Pages: 1 -->
<svg width="345pt" height="196pt"
 viewBox="0.00 0.00 345.00 196.00" xmlns="http://www.w3.org/2000/svg" xmlns:xlink="http://www.w3.org/1999/xlink">
<g id="graph0" class="graph" transform="scale(1 1) rotate(0) translate(4 192)">
<title>Headers/Clause.h</title>
<!-- Node1 -->
<g id="node1" class="node"><title>Node1</title>
<polygon fill="#bfbfbf" stroke="black" points="229.5,-168.5 229.5,-187.5 330.5,-187.5 330.5,-168.5 229.5,-168.5"/>
<text text-anchor="middle" x="280" y="-175.5" font-family="Helvetica.ttf" font-size="10.00">Headers/Clause.h</text>
</g>
<!-- Node2 -->
<g id="node2" class="node"><title>Node2</title>
<g id="a_node2"><a xlink:href="Problem_8h.html" target="_top" xlink:title="Headers/Problem.h">
<polygon fill="none" stroke="black" points="181.5,-112.5 181.5,-131.5 290.5,-131.5 290.5,-112.5 181.5,-112.5"/>
<text text-anchor="middle" x="236" y="-119.5" font-family="Helvetica.ttf" font-size="10.00">Headers/Problem.h</text>
</a>
</g>
</g>
<!-- Node1&#45;&gt;Node2 -->
<g id="edge1" class="edge"><title>Node1&#45;&gt;Node2</title>
<path fill="none" stroke="midnightblue" d="M266.265,-160.144C258.599,-150.736 249.367,-139.405 243.131,-131.751"/>
<polygon fill="midnightblue" stroke="midnightblue" points="263.704,-162.541 272.734,-168.083 269.131,-158.12 263.704,-162.541"/>
</g>
<!-- Node5 -->
<g id="node5" class="node"><title>Node5</title>
<g id="a_node5"><a xlink:href="Clause_8cpp.html" target="_top" xlink:title="Sources/Clause.cpp">
<polygon fill="none" stroke="black" points="225.5,-0.5 225.5,-19.5 336.5,-19.5 336.5,-0.5 225.5,-0.5"/>
<text text-anchor="middle" x="281" y="-7.5" font-family="Helvetica.ttf" font-size="10.00">Sources/Clause.cpp</text>
</a>
</g>
</g>
<!-- Node1&#45;&gt;Node5 -->
<g id="edge7" class="edge"><title>Node1&#45;&gt;Node5</title>
<path fill="none" stroke="midnightblue" d="M289.042,-159.159C292.744,-151.068 296.693,-141.257 299,-132 307.187,-99.1542 311.923,-88.9105 304,-56 300.755,-42.5225 292.755,-28.5398 287.105,-19.8095"/>
<polygon fill="midnightblue" stroke="midnightblue" points="285.818,-157.788 284.627,-168.316 292.123,-160.828 285.818,-157.788"/>
</g>
<!-- Node3 -->
<g id="node3" class="node"><title>Node3</title>
<g id="a_node3"><a xlink:href="Solver_8h.html" target="_top" xlink:title="Headers/Solver.h">
<polygon fill="none" stroke="black" points="59.5,-56.5 59.5,-75.5 158.5,-75.5 158.5,-56.5 59.5,-56.5"/>
<text text-anchor="middle" x="109" y="-63.5" font-family="Helvetica.ttf" font-size="10.00">Headers/Solver.h</text>
</a>
</g>
</g>
<!-- Node2&#45;&gt;Node3 -->
<g id="edge2" class="edge"><title>Node2&#45;&gt;Node3</title>
<path fill="none" stroke="midnightblue" d="M206.609,-108.503C182.8,-98.3795 149.894,-84.388 129.029,-75.5164"/>
<polygon fill="midnightblue" stroke="midnightblue" points="205.304,-111.751 215.876,-112.444 208.043,-105.31 205.304,-111.751"/>
</g>
<!-- Node7 -->
<g id="node7" class="node"><title>Node7</title>
<g id="a_node7"><a xlink:href="Problem_8cpp.html" target="_top" xlink:title="Sources/Problem.cpp">
<polygon fill="none" stroke="black" points="176.5,-56.5 176.5,-75.5 295.5,-75.5 295.5,-56.5 176.5,-56.5"/>
<text text-anchor="middle" x="236" y="-63.5" font-family="Helvetica.ttf" font-size="10.00">Sources/Problem.cpp</text>
</a>
</g>
</g>
<!-- Node2&#45;&gt;Node7 -->
<g id="edge6" class="edge"><title>Node2&#45;&gt;Node7</title>
<path fill="none" stroke="midnightblue" d="M236,-101.805C236,-92.9102 236,-82.7798 236,-75.7511"/>
<polygon fill="midnightblue" stroke="midnightblue" points="232.5,-102.083 236,-112.083 239.5,-102.083 232.5,-102.083"/>
</g>
<!-- Node4 -->
<g id="node4" class="node"><title>Node4</title>
<g id="a_node4"><a xlink:href="Main_8cpp.html" target="_top" xlink:title="Main.cpp">
<polygon fill="none" stroke="black" points="-0.5,-0.5 -0.5,-19.5 58.5,-19.5 58.5,-0.5 -0.5,-0.5"/>
<text text-anchor="middle" x="29" y="-7.5" font-family="Helvetica.ttf" font-size="10.00">Main.cpp</text>
</a>
</g>
</g>
<!-- Node3&#45;&gt;Node4 -->
<g id="edge3" class="edge"><title>Node3&#45;&gt;Node4</title>
<path fill="none" stroke="midnightblue" d="M87.6994,-50.6221C73.085,-40.7574 54.1732,-27.9919 41.8215,-19.6545"/>
<polygon fill="midnightblue" stroke="midnightblue" points="85.8999,-53.6302 96.1466,-56.324 89.8163,-47.8282 85.8999,-53.6302"/>
</g>
<!-- Node3&#45;&gt;Node5 -->
<g id="edge4" class="edge"><title>Node3&#45;&gt;Node5</title>
<path fill="none" stroke="midnightblue" d="M145.832,-53.4363C178.262,-43.2551 224.737,-28.664 253.874,-19.5164"/>
<polygon fill="midnightblue" stroke="midnightblue" points="144.746,-50.1088 136.254,-56.4435 146.843,-56.7874 144.746,-50.1088"/>
</g>
<!-- Node6 -->
<g id="node6" class="node"><title>Node6</title>
<g id="a_node6"><a xlink:href="Solver_8cpp.html" target="_top" xlink:title="Sources/Solver.cpp">
<polygon fill="none" stroke="black" points="76.5,-0.5 76.5,-19.5 185.5,-19.5 185.5,-0.5 76.5,-0.5"/>
<text text-anchor="middle" x="131" y="-7.5" font-family="Helvetica.ttf" font-size="10.00">Sources/Solver.cpp</text>
</a>
</g>
</g>
<!-- Node3&#45;&gt;Node6 -->
<g id="edge5" class="edge"><title>Node3&#45;&gt;Node6</title>
<path fill="none" stroke="midnightblue" d="M116.46,-46.6897C120.167,-37.589 124.476,-27.0141 127.435,-19.7511"/>
<polygon fill="midnightblue" stroke="midnightblue" points="113.165,-45.5015 112.633,-56.083 119.647,-48.1426 113.165,-45.5015"/>
</g>
</g>
</svg>
