<?xml version="1.0" encoding="UTF-8" standalone="no"?>
<!DOCTYPE svg PUBLIC "-//W3C//DTD SVG 1.1//EN"
 "http://www.w3.org/Graphics/SVG/1.1/DTD/svg11.dtd">
<!-- Generated by graphviz version 2.34.0 (20140121.1604)
 -->
<!-- Title: Sources/Clause.cpp Pages: 1 -->
<svg width="303pt" height="364pt"
 viewBox="0.00 0.00 303.00 364.00" xmlns="http://www.w3.org/2000/svg" xmlns:xlink="http://www.w3.org/1999/xlink">
<g id="graph0" class="graph" transform="scale(1 1) rotate(0) translate(4 360)">
<title>Sources/Clause.cpp</title>
<!-- Node1 -->
<g id="node1" class="node"><title>Node1</title>
<polygon fill="#bfbfbf" stroke="black" points="40.5,-336.5 40.5,-355.5 151.5,-355.5 151.5,-336.5 40.5,-336.5"/>
<text text-anchor="middle" x="96" y="-343.5" font-family="Helvetica.ttf" font-size="10.00">Sources/Clause.cpp</text>
</g>
<!-- Node2 -->
<g id="node2" class="node"><title>Node2</title>
<g id="a_node2"><a xlink:href="Clause_8h.html" target="_top" xlink:title="../Headers/Clause.h">
<polygon fill="none" stroke="black" points="0,-168.5 0,-187.5 110,-187.5 110,-168.5 0,-168.5"/>
<text text-anchor="middle" x="55" y="-175.5" font-family="Helvetica.ttf" font-size="10.00">../Headers/Clause.h</text>
</a>
</g>
</g>
<!-- Node1&#45;&gt;Node2 -->
<g id="edge1" class="edge"><title>Node1&#45;&gt;Node2</title>
<path fill="none" stroke="midnightblue" d="M90.8031,-336.36C85.7298,-327.531 78.1814,-313.271 74,-300 62.9617,-264.967 58.1691,-222.122 56.2193,-197.957"/>
<polygon fill="midnightblue" stroke="midnightblue" points="59.6904,-197.431 55.4755,-187.71 52.7088,-197.938 59.6904,-197.431"/>
</g>
<!-- Node7 -->
<g id="node7" class="node"><title>Node7</title>
<g id="a_node7"><a xlink:href="Solver_8h.html" target="_top" xlink:title="../Headers/Solver.h">
<polygon fill="none" stroke="black" points="83,-280.5 83,-299.5 191,-299.5 191,-280.5 83,-280.5"/>
<text text-anchor="middle" x="137" y="-287.5" font-family="Helvetica.ttf" font-size="10.00">../Headers/Solver.h</text>
</a>
</g>
</g>
<!-- Node1&#45;&gt;Node7 -->
<g id="edge7" class="edge"><title>Node1&#45;&gt;Node7</title>
<path fill="none" stroke="midnightblue" d="M102.77,-336.083C108.562,-328.455 117.058,-317.264 124.138,-307.941"/>
<polygon fill="midnightblue" stroke="midnightblue" points="127.096,-309.832 130.356,-299.751 121.521,-305.599 127.096,-309.832"/>
</g>
<!-- Node3 -->
<g id="node3" class="node"><title>Node3</title>
<g id="a_node3"><a xlink:href="Variable_8h.html" target="_top" xlink:title="Variable.h">
<polygon fill="none" stroke="black" points="22.5,-112.5 22.5,-131.5 87.5,-131.5 87.5,-112.5 22.5,-112.5"/>
<text text-anchor="middle" x="55" y="-119.5" font-family="Helvetica.ttf" font-size="10.00">Variable.h</text>
</a>
</g>
</g>
<!-- Node2&#45;&gt;Node3 -->
<g id="edge2" class="edge"><title>Node2&#45;&gt;Node3</title>
<path fill="none" stroke="midnightblue" d="M55,-168.083C55,-161.006 55,-150.861 55,-141.986"/>
<polygon fill="midnightblue" stroke="midnightblue" points="58.5001,-141.751 55,-131.751 51.5001,-141.751 58.5001,-141.751"/>
</g>
<!-- Node4 -->
<g id="node4" class="node"><title>Node4</title>
<g id="a_node4"><a xlink:href="FileLogger_8h.html" target="_top" xlink:title="FileLogger.h">
<polygon fill="none" stroke="black" points="36,-56.5 36,-75.5 110,-75.5 110,-56.5 36,-56.5"/>
<text text-anchor="middle" x="73" y="-63.5" font-family="Helvetica.ttf" font-size="10.00">FileLogger.h</text>
</a>
</g>
</g>
<!-- Node3&#45;&gt;Node4 -->
<g id="edge3" class="edge"><title>Node3&#45;&gt;Node4</title>
<path fill="none" stroke="midnightblue" d="M57.9723,-112.083C60.3838,-104.849 63.8638,-94.4087 66.8677,-85.3968"/>
<polygon fill="midnightblue" stroke="midnightblue" points="70.241,-86.3447 70.083,-75.7511 63.6002,-84.1311 70.241,-86.3447"/>
</g>
<!-- Node5 -->
<g id="node5" class="node"><title>Node5</title>
<polygon fill="none" stroke="#bfbfbf" points="5.5,-0.5 5.5,-19.5 64.5,-19.5 64.5,-0.5 5.5,-0.5"/>
<text text-anchor="middle" x="35" y="-7.5" font-family="Helvetica.ttf" font-size="10.00">iostream</text>
</g>
<!-- Node3&#45;&gt;Node5 -->
<g id="edge6" class="edge"><title>Node3&#45;&gt;Node5</title>
<path fill="none" stroke="midnightblue" d="M47.5876,-112.411C40.7236,-103.844 30.9939,-89.9788 27,-76 22.6075,-60.6263 25.4547,-42.529 28.9133,-29.3393"/>
<polygon fill="midnightblue" stroke="midnightblue" points="32.3193,-30.1647 31.8168,-19.5818 25.6101,-28.1682 32.3193,-30.1647"/>
</g>
<!-- Node4&#45;&gt;Node5 -->
<g id="edge4" class="edge"><title>Node4&#45;&gt;Node5</title>
<path fill="none" stroke="midnightblue" d="M66.7251,-56.083C61.3575,-48.4554 53.4824,-37.2645 46.9213,-27.9408"/>
<polygon fill="midnightblue" stroke="midnightblue" points="49.7755,-25.9149 41.1582,-19.7511 44.0508,-29.9434 49.7755,-25.9149"/>
</g>
<!-- Node6 -->
<g id="node6" class="node"><title>Node6</title>
<polygon fill="none" stroke="#bfbfbf" points="97,-0.5 97,-19.5 151,-19.5 151,-0.5 97,-0.5"/>
<text text-anchor="middle" x="124" y="-7.5" font-family="Helvetica.ttf" font-size="10.00">fstream</text>
</g>
<!-- Node4&#45;&gt;Node6 -->
<g id="edge5" class="edge"><title>Node4&#45;&gt;Node6</title>
<path fill="none" stroke="midnightblue" d="M81.4216,-56.083C88.8482,-48.2195 99.8517,-36.5688 108.812,-27.0813"/>
<polygon fill="midnightblue" stroke="midnightblue" points="111.413,-29.4244 115.735,-19.7511 106.324,-24.618 111.413,-29.4244"/>
</g>
<!-- Node8 -->
<g id="node8" class="node"><title>Node8</title>
<g id="a_node8"><a xlink:href="Problem_8h.html" target="_top" xlink:title="Problem.h">
<polygon fill="none" stroke="black" points="105.5,-224.5 105.5,-243.5 170.5,-243.5 170.5,-224.5 105.5,-224.5"/>
<text text-anchor="middle" x="138" y="-231.5" font-family="Helvetica.ttf" font-size="10.00">Problem.h</text>
</a>
</g>
</g>
<!-- Node7&#45;&gt;Node8 -->
<g id="edge8" class="edge"><title>Node7&#45;&gt;Node8</title>
<path fill="none" stroke="midnightblue" d="M137.165,-280.083C137.296,-273.006 137.484,-262.861 137.648,-253.986"/>
<polygon fill="midnightblue" stroke="midnightblue" points="141.152,-253.814 137.838,-243.751 134.153,-253.685 141.152,-253.814"/>
</g>
<!-- Node8&#45;&gt;Node2 -->
<g id="edge9" class="edge"><title>Node8&#45;&gt;Node2</title>
<path fill="none" stroke="midnightblue" d="M124.665,-224.324C111.838,-215.979 92.215,-203.212 77.0602,-193.352"/>
<polygon fill="midnightblue" stroke="midnightblue" points="78.5932,-190.174 68.3023,-187.655 74.7757,-196.042 78.5932,-190.174"/>
</g>
<!-- Node8&#45;&gt;Node6 -->
<g id="edge10" class="edge"><title>Node8&#45;&gt;Node6</title>
<path fill="none" stroke="midnightblue" d="M137.451,-224.297C135.391,-191.633 128.091,-75.8661 125.196,-29.9573"/>
<polygon fill="midnightblue" stroke="midnightblue" points="128.683,-29.6436 124.56,-19.8837 121.697,-30.0842 128.683,-29.6436"/>
</g>
<!-- Node9 -->
<g id="node9" class="node"><title>Node9</title>
<polygon fill="none" stroke="#bfbfbf" points="166,-168.5 166,-187.5 222,-187.5 222,-168.5 166,-168.5"/>
<text text-anchor="middle" x="194" y="-175.5" font-family="Helvetica.ttf" font-size="10.00">sstream</text>
</g>
<!-- Node8&#45;&gt;Node9 -->
<g id="edge11" class="edge"><title>Node8&#45;&gt;Node9</title>
<path fill="none" stroke="midnightblue" d="M146.997,-224.324C155.194,-216.42 167.506,-204.548 177.472,-194.938"/>
<polygon fill="midnightblue" stroke="midnightblue" points="180.07,-197.295 184.839,-187.834 175.211,-192.256 180.07,-197.295"/>
</g>
<!-- Node10 -->
<g id="node10" class="node"><title>Node10</title>
<polygon fill="none" stroke="#bfbfbf" points="240.5,-168.5 240.5,-187.5 295.5,-187.5 295.5,-168.5 240.5,-168.5"/>
<text text-anchor="middle" x="268" y="-175.5" font-family="Helvetica.ttf" font-size="10.00">iomanip</text>
</g>
<!-- Node8&#45;&gt;Node10 -->
<g id="edge12" class="edge"><title>Node8&#45;&gt;Node10</title>
<path fill="none" stroke="midnightblue" d="M158.599,-224.444C179.993,-215.557 213.681,-201.563 238.024,-191.451"/>
<polygon fill="midnightblue" stroke="midnightblue" points="239.605,-194.585 247.497,-187.516 236.92,-188.12 239.605,-194.585"/>
</g>
</g>
</svg>
