<?xml version="1.0" encoding="UTF-8" standalone="no"?>
<!DOCTYPE svg PUBLIC "-//W3C//DTD SVG 1.1//EN"
 "http://www.w3.org/Graphics/SVG/1.1/DTD/svg11.dtd">
<!-- Generated by graphviz version 2.34.0 (20140121.1604)
 -->
<!-- Title: main Pages: 1 -->
<svg width="510pt" height="199pt"
 viewBox="0.00 0.00 510.00 199.00" xmlns="http://www.w3.org/2000/svg" xmlns:xlink="http://www.w3.org/1999/xlink">
<g id="graph0" class="graph" transform="scale(1 1) rotate(0) translate(4 195)">
<title>main</title>
<!-- Node1 -->
<g id="node1" class="node"><title>Node1</title>
<polygon fill="#bfbfbf" stroke="black" points="0.5,-95.5 0.5,-114.5 41.5,-114.5 41.5,-95.5 0.5,-95.5"/>
<text text-anchor="middle" x="21" y="-102.5" font-family="Helvetica.ttf" font-size="10.00">main</text>
</g>
<!-- Node2 -->
<g id="node2" class="node"><title>Node2</title>
<g id="a_node2"><a xlink:href="Main_8cpp.html#a07339f4c4172514dead121b7bc44a3b9" target="_top" xlink:title="Useful to display some error during the parsing of the CNF file. ">
<polygon fill="none" stroke="black" points="78.5,-171.5 78.5,-190.5 199.5,-190.5 199.5,-171.5 78.5,-171.5"/>
<text text-anchor="middle" x="139" y="-178.5" font-family="Helvetica.ttf" font-size="10.00">displayErrorArgument</text>
</a>
</g>
</g>
<!-- Node1&#45;&gt;Node2 -->
<g id="edge1" class="edge"><title>Node1&#45;&gt;Node2</title>
<path fill="none" stroke="midnightblue" d="M29.2238,-114.912C38.95,-127.579 57.4273,-149.374 78,-162 81.4121,-164.094 85.0767,-165.978 88.8514,-167.669"/>
<polygon fill="midnightblue" stroke="midnightblue" points="87.7961,-171.017 98.3806,-171.485 90.3982,-164.518 87.7961,-171.017"/>
</g>
<!-- Node3 -->
<g id="node3" class="node"><title>Node3</title>
<g id="a_node3"><a xlink:href="Main_8cpp.html#aefec3b27a776fbaf41bef3ae83def5be" target="_top" xlink:title="Useful to display some informations about the inspiration (Glucose) and about the solver itself...">
<polygon fill="none" stroke="black" points="105.5,-133.5 105.5,-152.5 172.5,-152.5 172.5,-133.5 105.5,-133.5"/>
<text text-anchor="middle" x="139" y="-140.5" font-family="Helvetica.ttf" font-size="10.00">displayInfo</text>
</a>
</g>
</g>
<!-- Node1&#45;&gt;Node3 -->
<g id="edge2" class="edge"><title>Node1&#45;&gt;Node3</title>
<path fill="none" stroke="midnightblue" d="M41.6637,-111.781C52.3866,-115.451 65.9033,-120.033 78,-124 84.4176,-126.105 91.2342,-128.301 97.8828,-130.421"/>
<polygon fill="midnightblue" stroke="midnightblue" points="96.8474,-133.764 107.438,-133.454 98.9656,-127.093 96.8474,-133.764"/>
</g>
<!-- Node4 -->
<g id="node4" class="node"><title>Node4</title>
<g id="a_node4"><a xlink:href="classSolver.html#a2e9de364ab96aafabb2942850cb74c81" target="_top" xlink:title="This method is use to solve a Problem. ">
<polygon fill="none" stroke="black" points="100.5,-95.5 100.5,-114.5 177.5,-114.5 177.5,-95.5 100.5,-95.5"/>
<text text-anchor="middle" x="139" y="-102.5" font-family="Helvetica.ttf" font-size="10.00">Solver::solve</text>
</a>
</g>
</g>
<!-- Node1&#45;&gt;Node4 -->
<g id="edge3" class="edge"><title>Node1&#45;&gt;Node4</title>
<path fill="none" stroke="midnightblue" d="M41.6778,-105C54.9531,-105 73.0766,-105 90.0228,-105"/>
<polygon fill="midnightblue" stroke="midnightblue" points="90.3682,-108.5 100.368,-105 90.3681,-101.5 90.3682,-108.5"/>
</g>
<!-- Node5 -->
<g id="node5" class="node"><title>Node5</title>
<g id="a_node5"><a xlink:href="Main_8cpp.html#aa50308fe611d2c527e0b3ec79a5f1ac4" target="_top" xlink:title="Useful to display the time to solve this instance. ">
<polygon fill="none" stroke="black" points="89.5,-57.5 89.5,-76.5 188.5,-76.5 188.5,-57.5 89.5,-57.5"/>
<text text-anchor="middle" x="139" y="-64.5" font-family="Helvetica.ttf" font-size="10.00">displaySolveTime</text>
</a>
</g>
</g>
<!-- Node1&#45;&gt;Node5 -->
<g id="edge4" class="edge"><title>Node1&#45;&gt;Node5</title>
<path fill="none" stroke="midnightblue" d="M41.6637,-98.2189C52.3866,-94.5487 65.9033,-89.967 78,-86 84.4176,-83.8954 91.2342,-81.6994 97.8828,-79.5789"/>
<polygon fill="midnightblue" stroke="midnightblue" points="98.9656,-82.9074 107.438,-76.5455 96.8474,-76.2355 98.9656,-82.9074"/>
</g>
<!-- Node6 -->
<g id="node6" class="node"><title>Node6</title>
<g id="a_node6"><a xlink:href="Main_8cpp.html#a1271dea8a50555527b7bedabbb73d03d" target="_top" xlink:title="Useful to display s SATISFIABLE and the solution or s INSATISFIABLE otherwise. ">
<polygon fill="none" stroke="black" points="94.5,-19.5 94.5,-38.5 183.5,-38.5 183.5,-19.5 94.5,-19.5"/>
<text text-anchor="middle" x="139" y="-26.5" font-family="Helvetica.ttf" font-size="10.00">displaySolution</text>
</a>
</g>
</g>
<!-- Node1&#45;&gt;Node6 -->
<g id="edge5" class="edge"><title>Node1&#45;&gt;Node6</title>
<path fill="none" stroke="midnightblue" d="M29.2238,-95.0883C38.95,-82.4213 57.4273,-60.6263 78,-48 81.4121,-45.9058 85.0767,-44.0219 88.8514,-42.3309"/>
<polygon fill="midnightblue" stroke="midnightblue" points="90.3982,-45.4818 98.3806,-38.5153 87.7961,-38.9834 90.3982,-45.4818"/>
</g>
<!-- Node7 -->
<g id="node7" class="node"><title>Node7</title>
<g id="a_node7"><a xlink:href="classSolver.html#acda01ea8a4bf261df678b4a5c17a8106" target="_top" xlink:title="Check if our current solution is one solution of the Problem. ">
<polygon fill="none" stroke="black" points="236.5,-19.5 236.5,-38.5 335.5,-38.5 335.5,-19.5 236.5,-19.5"/>
<text text-anchor="middle" x="286" y="-26.5" font-family="Helvetica.ttf" font-size="10.00">Solver::isSolution</text>
</a>
</g>
</g>
<!-- Node6&#45;&gt;Node7 -->
<g id="edge6" class="edge"><title>Node6&#45;&gt;Node7</title>
<path fill="none" stroke="midnightblue" d="M183.505,-29C196.93,-29 211.944,-29 226.22,-29"/>
<polygon fill="midnightblue" stroke="midnightblue" points="226.453,-32.5001 236.452,-29 226.452,-25.5001 226.453,-32.5001"/>
</g>
<!-- Node8 -->
<g id="node8" class="node"><title>Node8</title>
<g id="a_node8"><a xlink:href="classProblem.html#af18b83d5f9e0cb7c35f100346f62aa8d" target="_top" xlink:title="We can get the number of Clauses in the Problem. ">
<polygon fill="none" stroke="black" points="372.5,-38.5 372.5,-57.5 501.5,-57.5 501.5,-38.5 372.5,-38.5"/>
<text text-anchor="middle" x="437" y="-45.5" font-family="Helvetica.ttf" font-size="10.00">Problem::getNbClauses</text>
</a>
</g>
</g>
<!-- Node7&#45;&gt;Node8 -->
<g id="edge7" class="edge"><title>Node7&#45;&gt;Node8</title>
<path fill="none" stroke="midnightblue" d="M335.788,-35.2213C344.298,-36.3065 353.318,-37.4566 362.322,-38.6048"/>
<polygon fill="midnightblue" stroke="midnightblue" points="362.09,-42.1035 372.453,-39.8967 362.976,-35.1598 362.09,-42.1035"/>
</g>
<!-- Node9 -->
<g id="node9" class="node"><title>Node9</title>
<g id="a_node9"><a xlink:href="classProblem.html#a67b23140b2e80145a0671a87183e753d" target="_top" xlink:title="We can get a reference to the i&#45;th Clause of the Problem. ">
<polygon fill="none" stroke="black" points="382,-0.5 382,-19.5 492,-19.5 492,-0.5 382,-0.5"/>
<text text-anchor="middle" x="437" y="-7.5" font-family="Helvetica.ttf" font-size="10.00">Problem::getClause</text>
</a>
</g>
</g>
<!-- Node7&#45;&gt;Node9 -->
<g id="edge8" class="edge"><title>Node7&#45;&gt;Node9</title>
<path fill="none" stroke="midnightblue" d="M335.788,-22.7787C347.326,-21.3075 359.801,-19.7167 371.902,-18.1736"/>
<polygon fill="midnightblue" stroke="midnightblue" points="372.474,-21.6291 381.951,-16.8922 371.588,-14.6853 372.474,-21.6291"/>
</g>
</g>
</svg>
