<?xml version="1.0" encoding="UTF-8" standalone="no"?>
<!DOCTYPE svg PUBLIC "-//W3C//DTD SVG 1.1//EN"
 "http://www.w3.org/Graphics/SVG/1.1/DTD/svg11.dtd">
<!-- Generated by graphviz version 2.34.0 (20140121.1604)
 -->
<!-- Title: Main.cpp Pages: 1 -->
<svg width="457pt" height="364pt"
 viewBox="0.00 0.00 457.00 364.00" xmlns="http://www.w3.org/2000/svg" xmlns:xlink="http://www.w3.org/1999/xlink">
<g id="graph0" class="graph" transform="scale(1 1) rotate(0) translate(4 360)">
<title>Main.cpp</title>
<!-- Node1 -->
<g id="node1" class="node"><title>Node1</title>
<polygon fill="#bfbfbf" stroke="black" points="130.5,-336.5 130.5,-355.5 189.5,-355.5 189.5,-336.5 130.5,-336.5"/>
<text text-anchor="middle" x="160" y="-343.5" font-family="Helvetica.ttf" font-size="10.00">Main.cpp</text>
</g>
<!-- Node2 -->
<g id="node2" class="node"><title>Node2</title>
<polygon fill="none" stroke="#bfbfbf" points="0.5,-280.5 0.5,-299.5 49.5,-299.5 49.5,-280.5 0.5,-280.5"/>
<text text-anchor="middle" x="25" y="-287.5" font-family="Helvetica.ttf" font-size="10.00">stdio.h</text>
</g>
<!-- Node1&#45;&gt;Node2 -->
<g id="edge1" class="edge"><title>Node1&#45;&gt;Node2</title>
<path fill="none" stroke="midnightblue" d="M138.609,-336.444C116.293,-327.517 81.0968,-313.439 55.792,-303.317"/>
<polygon fill="midnightblue" stroke="midnightblue" points="56.8757,-299.981 46.2911,-299.516 54.276,-306.48 56.8757,-299.981"/>
</g>
<!-- Node3 -->
<g id="node3" class="node"><title>Node3</title>
<polygon fill="none" stroke="#bfbfbf" points="67.5,-280.5 67.5,-299.5 118.5,-299.5 118.5,-280.5 67.5,-280.5"/>
<text text-anchor="middle" x="93" y="-287.5" font-family="Helvetica.ttf" font-size="10.00">stdlib.h</text>
</g>
<!-- Node1&#45;&gt;Node3 -->
<g id="edge2" class="edge"><title>Node1&#45;&gt;Node3</title>
<path fill="none" stroke="midnightblue" d="M149.235,-336.324C139.234,-328.263 124.113,-316.077 112.07,-306.369"/>
<polygon fill="midnightblue" stroke="midnightblue" points="113.943,-303.384 103.961,-299.834 109.55,-308.834 113.943,-303.384"/>
</g>
<!-- Node4 -->
<g id="node4" class="node"><title>Node4</title>
<polygon fill="none" stroke="#bfbfbf" points="136.5,-280.5 136.5,-299.5 183.5,-299.5 183.5,-280.5 136.5,-280.5"/>
<text text-anchor="middle" x="160" y="-287.5" font-family="Helvetica.ttf" font-size="10.00">time.h</text>
</g>
<!-- Node1&#45;&gt;Node4 -->
<g id="edge3" class="edge"><title>Node1&#45;&gt;Node4</title>
<path fill="none" stroke="midnightblue" d="M160,-336.083C160,-329.006 160,-318.861 160,-309.986"/>
<polygon fill="midnightblue" stroke="midnightblue" points="163.5,-309.751 160,-299.751 156.5,-309.751 163.5,-309.751"/>
</g>
<!-- Node5 -->
<g id="node5" class="node"><title>Node5</title>
<polygon fill="none" stroke="#bfbfbf" points="201.5,-280.5 201.5,-299.5 252.5,-299.5 252.5,-280.5 201.5,-280.5"/>
<text text-anchor="middle" x="227" y="-287.5" font-family="Helvetica.ttf" font-size="10.00">math.h</text>
</g>
<!-- Node1&#45;&gt;Node5 -->
<g id="edge4" class="edge"><title>Node1&#45;&gt;Node5</title>
<path fill="none" stroke="midnightblue" d="M170.765,-336.324C180.766,-328.263 195.887,-316.077 207.93,-306.369"/>
<polygon fill="midnightblue" stroke="midnightblue" points="210.45,-308.834 216.039,-299.834 206.057,-303.384 210.45,-308.834"/>
</g>
<!-- Node6 -->
<g id="node6" class="node"><title>Node6</title>
<g id="a_node6"><a xlink:href="Solver_8h.html" target="_top" xlink:title="Headers/Solver.h">
<polygon fill="none" stroke="black" points="270.5,-280.5 270.5,-299.5 369.5,-299.5 369.5,-280.5 270.5,-280.5"/>
<text text-anchor="middle" x="320" y="-287.5" font-family="Helvetica.ttf" font-size="10.00">Headers/Solver.h</text>
</a>
</g>
</g>
<!-- Node1&#45;&gt;Node6 -->
<g id="edge5" class="edge"><title>Node1&#45;&gt;Node6</title>
<path fill="none" stroke="midnightblue" d="M185.352,-336.444C212.269,-327.359 254.996,-312.939 285.087,-302.783"/>
<polygon fill="midnightblue" stroke="midnightblue" points="286.41,-306.031 294.766,-299.516 284.172,-299.398 286.41,-306.031"/>
</g>
<!-- Node7 -->
<g id="node7" class="node"><title>Node7</title>
<g id="a_node7"><a xlink:href="Problem_8h.html" target="_top" xlink:title="Problem.h">
<polygon fill="none" stroke="black" points="287.5,-224.5 287.5,-243.5 352.5,-243.5 352.5,-224.5 287.5,-224.5"/>
<text text-anchor="middle" x="320" y="-231.5" font-family="Helvetica.ttf" font-size="10.00">Problem.h</text>
</a>
</g>
</g>
<!-- Node6&#45;&gt;Node7 -->
<g id="edge6" class="edge"><title>Node6&#45;&gt;Node7</title>
<path fill="none" stroke="midnightblue" d="M320,-280.083C320,-273.006 320,-262.861 320,-253.986"/>
<polygon fill="midnightblue" stroke="midnightblue" points="323.5,-253.751 320,-243.751 316.5,-253.751 323.5,-253.751"/>
</g>
<!-- Node8 -->
<g id="node8" class="node"><title>Node8</title>
<g id="a_node8"><a xlink:href="Clause_8h.html" target="_top" xlink:title="Clause.h">
<polygon fill="none" stroke="black" points="202,-168.5 202,-187.5 260,-187.5 260,-168.5 202,-168.5"/>
<text text-anchor="middle" x="231" y="-175.5" font-family="Helvetica.ttf" font-size="10.00">Clause.h</text>
</a>
</g>
</g>
<!-- Node7&#45;&gt;Node8 -->
<g id="edge7" class="edge"><title>Node7&#45;&gt;Node8</title>
<path fill="none" stroke="midnightblue" d="M305.701,-224.324C291.817,-215.9 270.508,-202.971 254.196,-193.074"/>
<polygon fill="midnightblue" stroke="midnightblue" points="255.629,-189.85 245.264,-187.655 251.998,-195.834 255.629,-189.85"/>
</g>
<!-- Node12 -->
<g id="node12" class="node"><title>Node12</title>
<polygon fill="none" stroke="#bfbfbf" points="251,-0.5 251,-19.5 305,-19.5 305,-0.5 251,-0.5"/>
<text text-anchor="middle" x="278" y="-7.5" font-family="Helvetica.ttf" font-size="10.00">fstream</text>
</g>
<!-- Node7&#45;&gt;Node12 -->
<g id="edge13" class="edge"><title>Node7&#45;&gt;Node12</title>
<path fill="none" stroke="midnightblue" d="M318.241,-224.38C316.402,-215.327 313.448,-200.673 311,-188 299.861,-130.346 287.3,-61.998 281.402,-29.6944"/>
<polygon fill="midnightblue" stroke="midnightblue" points="284.844,-29.0581 279.607,-19.848 277.958,-30.3136 284.844,-29.0581"/>
</g>
<!-- Node13 -->
<g id="node13" class="node"><title>Node13</title>
<polygon fill="none" stroke="#bfbfbf" points="320,-168.5 320,-187.5 376,-187.5 376,-168.5 320,-168.5"/>
<text text-anchor="middle" x="348" y="-175.5" font-family="Helvetica.ttf" font-size="10.00">sstream</text>
</g>
<!-- Node7&#45;&gt;Node13 -->
<g id="edge14" class="edge"><title>Node7&#45;&gt;Node13</title>
<path fill="none" stroke="midnightblue" d="M324.624,-224.083C328.456,-216.691 334.024,-205.953 338.765,-196.811"/>
<polygon fill="midnightblue" stroke="midnightblue" points="341.966,-198.24 343.462,-187.751 335.752,-195.018 341.966,-198.24"/>
</g>
<!-- Node14 -->
<g id="node14" class="node"><title>Node14</title>
<polygon fill="none" stroke="#bfbfbf" points="394.5,-168.5 394.5,-187.5 449.5,-187.5 449.5,-168.5 394.5,-168.5"/>
<text text-anchor="middle" x="422" y="-175.5" font-family="Helvetica.ttf" font-size="10.00">iomanip</text>
</g>
<!-- Node7&#45;&gt;Node14 -->
<g id="edge15" class="edge"><title>Node7&#45;&gt;Node14</title>
<path fill="none" stroke="midnightblue" d="M336.388,-224.324C352.671,-215.703 377.867,-202.364 396.716,-192.386"/>
<polygon fill="midnightblue" stroke="midnightblue" points="398.452,-195.427 405.653,-187.655 395.177,-189.24 398.452,-195.427"/>
</g>
<!-- Node9 -->
<g id="node9" class="node"><title>Node9</title>
<g id="a_node9"><a xlink:href="Variable_8h.html" target="_top" xlink:title="Variable.h">
<polygon fill="none" stroke="black" points="194.5,-112.5 194.5,-131.5 259.5,-131.5 259.5,-112.5 194.5,-112.5"/>
<text text-anchor="middle" x="227" y="-119.5" font-family="Helvetica.ttf" font-size="10.00">Variable.h</text>
</a>
</g>
</g>
<!-- Node8&#45;&gt;Node9 -->
<g id="edge8" class="edge"><title>Node8&#45;&gt;Node9</title>
<path fill="none" stroke="midnightblue" d="M230.339,-168.083C229.815,-161.006 229.064,-150.861 228.406,-141.986"/>
<polygon fill="midnightblue" stroke="midnightblue" points="231.877,-141.465 227.648,-131.751 224.897,-141.982 231.877,-141.465"/>
</g>
<!-- Node10 -->
<g id="node10" class="node"><title>Node10</title>
<g id="a_node10"><a xlink:href="FileLogger_8h.html" target="_top" xlink:title="FileLogger.h">
<polygon fill="none" stroke="black" points="190,-56.5 190,-75.5 264,-75.5 264,-56.5 190,-56.5"/>
<text text-anchor="middle" x="227" y="-63.5" font-family="Helvetica.ttf" font-size="10.00">FileLogger.h</text>
</a>
</g>
</g>
<!-- Node9&#45;&gt;Node10 -->
<g id="edge9" class="edge"><title>Node9&#45;&gt;Node10</title>
<path fill="none" stroke="midnightblue" d="M227,-112.083C227,-105.006 227,-94.8611 227,-85.9865"/>
<polygon fill="midnightblue" stroke="midnightblue" points="230.5,-85.751 227,-75.7511 223.5,-85.7511 230.5,-85.751"/>
</g>
<!-- Node11 -->
<g id="node11" class="node"><title>Node11</title>
<polygon fill="none" stroke="#bfbfbf" points="159.5,-0.5 159.5,-19.5 218.5,-19.5 218.5,-0.5 159.5,-0.5"/>
<text text-anchor="middle" x="189" y="-7.5" font-family="Helvetica.ttf" font-size="10.00">iostream</text>
</g>
<!-- Node9&#45;&gt;Node11 -->
<g id="edge12" class="edge"><title>Node9&#45;&gt;Node11</title>
<path fill="none" stroke="midnightblue" d="M213.213,-112.189C202.174,-104.241 187.498,-91.4469 181,-76 174.738,-61.1147 177.887,-42.7385 181.932,-29.3269"/>
<polygon fill="midnightblue" stroke="midnightblue" points="185.267,-30.3916 185.205,-19.797 178.647,-28.1177 185.267,-30.3916"/>
</g>
<!-- Node10&#45;&gt;Node11 -->
<g id="edge10" class="edge"><title>Node10&#45;&gt;Node11</title>
<path fill="none" stroke="midnightblue" d="M220.725,-56.083C215.358,-48.4554 207.482,-37.2645 200.921,-27.9408"/>
<polygon fill="midnightblue" stroke="midnightblue" points="203.775,-25.9149 195.158,-19.7511 198.051,-29.9434 203.775,-25.9149"/>
</g>
<!-- Node10&#45;&gt;Node12 -->
<g id="edge11" class="edge"><title>Node10&#45;&gt;Node12</title>
<path fill="none" stroke="midnightblue" d="M235.422,-56.083C242.848,-48.2195 253.852,-36.5688 262.812,-27.0813"/>
<polygon fill="midnightblue" stroke="midnightblue" points="265.413,-29.4244 269.735,-19.7511 260.324,-24.618 265.413,-29.4244"/>
</g>
</g>
</svg>
