<?xml version="1.0" encoding="UTF-8" standalone="no"?>
<!DOCTYPE svg PUBLIC "-//W3C//DTD SVG 1.1//EN"
 "http://www.w3.org/Graphics/SVG/1.1/DTD/svg11.dtd">
<!-- Generated by graphviz version 2.34.0 (20140121.1604)
 -->
<!-- Title: displaySolution Pages: 1 -->
<svg width="400pt" height="66pt"
 viewBox="0.00 0.00 400.00 66.00" xmlns="http://www.w3.org/2000/svg" xmlns:xlink="http://www.w3.org/1999/xlink">
<g id="graph0" class="graph" transform="scale(1 1) rotate(0) translate(4 62)">
<title>displaySolution</title>
<!-- Node1 -->
<g id="node1" class="node"><title>Node1</title>
<polygon fill="#bfbfbf" stroke="black" points="0.5,-19.5 0.5,-38.5 89.5,-38.5 89.5,-19.5 0.5,-19.5"/>
<text text-anchor="middle" x="45" y="-26.5" font-family="Helvetica.ttf" font-size="10.00">displaySolution</text>
</g>
<!-- Node2 -->
<g id="node2" class="node"><title>Node2</title>
<g id="a_node2"><a xlink:href="classSolver.html#acda01ea8a4bf261df678b4a5c17a8106" target="_top" xlink:title="Check if our current solution is one solution of the Problem. ">
<polygon fill="none" stroke="black" points="126.5,-19.5 126.5,-38.5 225.5,-38.5 225.5,-19.5 126.5,-19.5"/>
<text text-anchor="middle" x="176" y="-26.5" font-family="Helvetica.ttf" font-size="10.00">Solver::isSolution</text>
</a>
</g>
</g>
<!-- Node1&#45;&gt;Node2 -->
<g id="edge1" class="edge"><title>Node1&#45;&gt;Node2</title>
<path fill="none" stroke="midnightblue" d="M89.6735,-29C98.2769,-29 107.434,-29 116.436,-29"/>
<polygon fill="midnightblue" stroke="midnightblue" points="116.495,-32.5001 126.495,-29 116.495,-25.5001 116.495,-32.5001"/>
</g>
<!-- Node3 -->
<g id="node3" class="node"><title>Node3</title>
<g id="a_node3"><a xlink:href="classProblem.html#af18b83d5f9e0cb7c35f100346f62aa8d" target="_top" xlink:title="We can get the number of Clauses in the Problem. ">
<polygon fill="none" stroke="black" points="262.5,-38.5 262.5,-57.5 391.5,-57.5 391.5,-38.5 262.5,-38.5"/>
<text text-anchor="middle" x="327" y="-45.5" font-family="Helvetica.ttf" font-size="10.00">Problem::getNbClauses</text>
</a>
</g>
</g>
<!-- Node2&#45;&gt;Node3 -->
<g id="edge2" class="edge"><title>Node2&#45;&gt;Node3</title>
<path fill="none" stroke="midnightblue" d="M225.788,-35.2213C234.298,-36.3065 243.318,-37.4566 252.322,-38.6048"/>
<polygon fill="midnightblue" stroke="midnightblue" points="252.09,-42.1035 262.453,-39.8967 252.976,-35.1598 252.09,-42.1035"/>
</g>
<!-- Node4 -->
<g id="node4" class="node"><title>Node4</title>
<g id="a_node4"><a xlink:href="classProblem.html#a67b23140b2e80145a0671a87183e753d" target="_top" xlink:title="We can get a reference to the i&#45;th Clause of the Problem. ">
<polygon fill="none" stroke="black" points="272,-0.5 272,-19.5 382,-19.5 382,-0.5 272,-0.5"/>
<text text-anchor="middle" x="327" y="-7.5" font-family="Helvetica.ttf" font-size="10.00">Problem::getClause</text>
</a>
</g>
</g>
<!-- Node2&#45;&gt;Node4 -->
<g id="edge3" class="edge"><title>Node2&#45;&gt;Node4</title>
<path fill="none" stroke="midnightblue" d="M225.788,-22.7787C237.326,-21.3075 249.801,-19.7167 261.902,-18.1736"/>
<polygon fill="midnightblue" stroke="midnightblue" points="262.474,-21.6291 271.951,-16.8922 261.588,-14.6853 262.474,-21.6291"/>
</g>
</g>
</svg>
