<?xml version="1.0" encoding="UTF-8" standalone="no"?>
<!DOCTYPE svg PUBLIC "-//W3C//DTD SVG 1.1//EN"
 "http://www.w3.org/Graphics/SVG/1.1/DTD/svg11.dtd">
<!-- Generated by graphviz version 2.34.0 (20140121.1604)
 -->
<!-- Title: Headers/Solver.h Pages: 1 -->
<svg width="297pt" height="308pt"
 viewBox="0.00 0.00 297.00 308.00" xmlns="http://www.w3.org/2000/svg" xmlns:xlink="http://www.w3.org/1999/xlink">
<g id="graph0" class="graph" transform="scale(1 1) rotate(0) translate(4 304)">
<title>Headers/Solver.h</title>
<!-- Node1 -->
<g id="node1" class="node"><title>Node1</title>
<polygon fill="#bfbfbf" stroke="black" points="110.5,-280.5 110.5,-299.5 209.5,-299.5 209.5,-280.5 110.5,-280.5"/>
<text text-anchor="middle" x="160" y="-287.5" font-family="Helvetica.ttf" font-size="10.00">Headers/Solver.h</text>
</g>
<!-- Node2 -->
<g id="node2" class="node"><title>Node2</title>
<g id="a_node2"><a xlink:href="Problem_8h.html" target="_top" xlink:title="Problem.h">
<polygon fill="none" stroke="black" points="127.5,-224.5 127.5,-243.5 192.5,-243.5 192.5,-224.5 127.5,-224.5"/>
<text text-anchor="middle" x="160" y="-231.5" font-family="Helvetica.ttf" font-size="10.00">Problem.h</text>
</a>
</g>
</g>
<!-- Node1&#45;&gt;Node2 -->
<g id="edge1" class="edge"><title>Node1&#45;&gt;Node2</title>
<path fill="none" stroke="midnightblue" d="M160,-280.083C160,-273.006 160,-262.861 160,-253.986"/>
<polygon fill="midnightblue" stroke="midnightblue" points="163.5,-253.751 160,-243.751 156.5,-253.751 163.5,-253.751"/>
</g>
<!-- Node3 -->
<g id="node3" class="node"><title>Node3</title>
<g id="a_node3"><a xlink:href="Clause_8h.html" target="_top" xlink:title="Clause.h">
<polygon fill="none" stroke="black" points="42,-168.5 42,-187.5 100,-187.5 100,-168.5 42,-168.5"/>
<text text-anchor="middle" x="71" y="-175.5" font-family="Helvetica.ttf" font-size="10.00">Clause.h</text>
</a>
</g>
</g>
<!-- Node2&#45;&gt;Node3 -->
<g id="edge2" class="edge"><title>Node2&#45;&gt;Node3</title>
<path fill="none" stroke="midnightblue" d="M145.701,-224.324C131.817,-215.9 110.508,-202.971 94.1963,-193.074"/>
<polygon fill="midnightblue" stroke="midnightblue" points="95.6289,-189.85 85.2639,-187.655 91.9978,-195.834 95.6289,-189.85"/>
</g>
<!-- Node7 -->
<g id="node7" class="node"><title>Node7</title>
<polygon fill="none" stroke="#bfbfbf" points="91,-0.5 91,-19.5 145,-19.5 145,-0.5 91,-0.5"/>
<text text-anchor="middle" x="118" y="-7.5" font-family="Helvetica.ttf" font-size="10.00">fstream</text>
</g>
<!-- Node2&#45;&gt;Node7 -->
<g id="edge8" class="edge"><title>Node2&#45;&gt;Node7</title>
<path fill="none" stroke="midnightblue" d="M158.241,-224.38C156.402,-215.327 153.448,-200.673 151,-188 139.861,-130.346 127.3,-61.998 121.402,-29.6944"/>
<polygon fill="midnightblue" stroke="midnightblue" points="124.844,-29.0581 119.607,-19.848 117.958,-30.3136 124.844,-29.0581"/>
</g>
<!-- Node8 -->
<g id="node8" class="node"><title>Node8</title>
<polygon fill="none" stroke="#bfbfbf" points="160,-168.5 160,-187.5 216,-187.5 216,-168.5 160,-168.5"/>
<text text-anchor="middle" x="188" y="-175.5" font-family="Helvetica.ttf" font-size="10.00">sstream</text>
</g>
<!-- Node2&#45;&gt;Node8 -->
<g id="edge9" class="edge"><title>Node2&#45;&gt;Node8</title>
<path fill="none" stroke="midnightblue" d="M164.624,-224.083C168.456,-216.691 174.024,-205.953 178.765,-196.811"/>
<polygon fill="midnightblue" stroke="midnightblue" points="181.966,-198.24 183.462,-187.751 175.752,-195.018 181.966,-198.24"/>
</g>
<!-- Node9 -->
<g id="node9" class="node"><title>Node9</title>
<polygon fill="none" stroke="#bfbfbf" points="234.5,-168.5 234.5,-187.5 289.5,-187.5 289.5,-168.5 234.5,-168.5"/>
<text text-anchor="middle" x="262" y="-175.5" font-family="Helvetica.ttf" font-size="10.00">iomanip</text>
</g>
<!-- Node2&#45;&gt;Node9 -->
<g id="edge10" class="edge"><title>Node2&#45;&gt;Node9</title>
<path fill="none" stroke="midnightblue" d="M176.388,-224.324C192.671,-215.703 217.867,-202.364 236.716,-192.386"/>
<polygon fill="midnightblue" stroke="midnightblue" points="238.452,-195.427 245.653,-187.655 235.177,-189.24 238.452,-195.427"/>
</g>
<!-- Node4 -->
<g id="node4" class="node"><title>Node4</title>
<g id="a_node4"><a xlink:href="Variable_8h.html" target="_top" xlink:title="Variable.h">
<polygon fill="none" stroke="black" points="34.5,-112.5 34.5,-131.5 99.5,-131.5 99.5,-112.5 34.5,-112.5"/>
<text text-anchor="middle" x="67" y="-119.5" font-family="Helvetica.ttf" font-size="10.00">Variable.h</text>
</a>
</g>
</g>
<!-- Node3&#45;&gt;Node4 -->
<g id="edge3" class="edge"><title>Node3&#45;&gt;Node4</title>
<path fill="none" stroke="midnightblue" d="M70.3395,-168.083C69.8152,-161.006 69.0638,-150.861 68.4064,-141.986"/>
<polygon fill="midnightblue" stroke="midnightblue" points="71.8775,-141.465 67.6482,-131.751 64.8966,-141.982 71.8775,-141.465"/>
</g>
<!-- Node5 -->
<g id="node5" class="node"><title>Node5</title>
<g id="a_node5"><a xlink:href="FileLogger_8h.html" target="_top" xlink:title="FileLogger.h">
<polygon fill="none" stroke="black" points="30,-56.5 30,-75.5 104,-75.5 104,-56.5 30,-56.5"/>
<text text-anchor="middle" x="67" y="-63.5" font-family="Helvetica.ttf" font-size="10.00">FileLogger.h</text>
</a>
</g>
</g>
<!-- Node4&#45;&gt;Node5 -->
<g id="edge4" class="edge"><title>Node4&#45;&gt;Node5</title>
<path fill="none" stroke="midnightblue" d="M67,-112.083C67,-105.006 67,-94.8611 67,-85.9865"/>
<polygon fill="midnightblue" stroke="midnightblue" points="70.5001,-85.751 67,-75.7511 63.5001,-85.7511 70.5001,-85.751"/>
</g>
<!-- Node6 -->
<g id="node6" class="node"><title>Node6</title>
<polygon fill="none" stroke="#bfbfbf" points="-0.5,-0.5 -0.5,-19.5 58.5,-19.5 58.5,-0.5 -0.5,-0.5"/>
<text text-anchor="middle" x="29" y="-7.5" font-family="Helvetica.ttf" font-size="10.00">iostream</text>
</g>
<!-- Node4&#45;&gt;Node6 -->
<g id="edge7" class="edge"><title>Node4&#45;&gt;Node6</title>
<path fill="none" stroke="midnightblue" d="M53.2135,-112.189C42.174,-104.241 27.498,-91.4469 21,-76 14.7383,-61.1147 17.8872,-42.7385 21.9319,-29.3269"/>
<polygon fill="midnightblue" stroke="midnightblue" points="25.2669,-30.3916 25.2052,-19.797 18.6465,-28.1177 25.2669,-30.3916"/>
</g>
<!-- Node5&#45;&gt;Node6 -->
<g id="edge5" class="edge"><title>Node5&#45;&gt;Node6</title>
<path fill="none" stroke="midnightblue" d="M60.7251,-56.083C55.3575,-48.4554 47.4824,-37.2645 40.9213,-27.9408"/>
<polygon fill="midnightblue" stroke="midnightblue" points="43.7755,-25.9149 35.1582,-19.7511 38.0508,-29.9434 43.7755,-25.9149"/>
</g>
<!-- Node5&#45;&gt;Node7 -->
<g id="edge6" class="edge"><title>Node5&#45;&gt;Node7</title>
<path fill="none" stroke="midnightblue" d="M75.4216,-56.083C82.8482,-48.2195 93.8517,-36.5688 102.812,-27.0813"/>
<polygon fill="midnightblue" stroke="midnightblue" points="105.413,-29.4244 109.735,-19.7511 100.324,-24.618 105.413,-29.4244"/>
</g>
</g>
</svg>
