<?xml version="1.0" encoding="UTF-8" standalone="no"?>
<!DOCTYPE svg PUBLIC "-//W3C//DTD SVG 1.1//EN"
 "http://www.w3.org/Graphics/SVG/1.1/DTD/svg11.dtd">
<!-- Generated by graphviz version 2.34.0 (20140121.1604)
 -->
<!-- Title: Headers/Solver.h Pages: 1 -->
<svg width="322pt" height="84pt"
 viewBox="0.00 0.00 322.00 84.00" xmlns="http://www.w3.org/2000/svg" xmlns:xlink="http://www.w3.org/1999/xlink">
<g id="graph0" class="graph" transform="scale(1 1) rotate(0) translate(4 80)">
<title>Headers/Solver.h</title>
<!-- Node1 -->
<g id="node1" class="node"><title>Node1</title>
<polygon fill="#bfbfbf" stroke="black" points="82.5,-56.5 82.5,-75.5 181.5,-75.5 181.5,-56.5 82.5,-56.5"/>
<text text-anchor="middle" x="132" y="-63.5" font-family="Helvetica.ttf" font-size="10.00">Headers/Solver.h</text>
</g>
<!-- Node2 -->
<g id="node2" class="node"><title>Node2</title>
<g id="a_node2"><a xlink:href="Main_8cpp.html" target="_top" xlink:title="Main.cpp">
<polygon fill="none" stroke="black" points="-0.5,-0.5 -0.5,-19.5 58.5,-19.5 58.5,-0.5 -0.5,-0.5"/>
<text text-anchor="middle" x="29" y="-7.5" font-family="Helvetica.ttf" font-size="10.00">Main.cpp</text>
</a>
</g>
</g>
<!-- Node1&#45;&gt;Node2 -->
<g id="edge1" class="edge"><title>Node1&#45;&gt;Node2</title>
<path fill="none" stroke="midnightblue" d="M106.421,-51.5895C87.3766,-41.6052 61.9356,-28.2672 45.5077,-19.6545"/>
<polygon fill="midnightblue" stroke="midnightblue" points="104.969,-54.7805 115.451,-56.324 108.22,-48.5808 104.969,-54.7805"/>
</g>
<!-- Node3 -->
<g id="node3" class="node"><title>Node3</title>
<g id="a_node3"><a xlink:href="Clause_8cpp.html" target="_top" xlink:title="Sources/Clause.cpp">
<polygon fill="none" stroke="black" points="76.5,-0.5 76.5,-19.5 187.5,-19.5 187.5,-0.5 76.5,-0.5"/>
<text text-anchor="middle" x="132" y="-7.5" font-family="Helvetica.ttf" font-size="10.00">Sources/Clause.cpp</text>
</a>
</g>
</g>
<!-- Node1&#45;&gt;Node3 -->
<g id="edge2" class="edge"><title>Node1&#45;&gt;Node3</title>
<path fill="none" stroke="midnightblue" d="M132,-45.8045C132,-36.9102 132,-26.7798 132,-19.7511"/>
<polygon fill="midnightblue" stroke="midnightblue" points="128.5,-46.083 132,-56.083 135.5,-46.083 128.5,-46.083"/>
</g>
<!-- Node4 -->
<g id="node4" class="node"><title>Node4</title>
<g id="a_node4"><a xlink:href="Solver_8cpp.html" target="_top" xlink:title="Sources/Solver.cpp">
<polygon fill="none" stroke="black" points="205.5,-0.5 205.5,-19.5 314.5,-19.5 314.5,-0.5 205.5,-0.5"/>
<text text-anchor="middle" x="260" y="-7.5" font-family="Helvetica.ttf" font-size="10.00">Sources/Solver.cpp</text>
</a>
</g>
</g>
<!-- Node1&#45;&gt;Node4 -->
<g id="edge3" class="edge"><title>Node1&#45;&gt;Node4</title>
<path fill="none" stroke="midnightblue" d="M161.623,-52.503C185.619,-42.3795 218.784,-28.388 239.813,-19.5164"/>
<polygon fill="midnightblue" stroke="midnightblue" points="160.135,-49.3317 152.282,-56.4435 162.856,-55.7813 160.135,-49.3317"/>
</g>
</g>
</svg>
