<?xml version="1.0" encoding="UTF-8" standalone="no"?>
<!DOCTYPE svg PUBLIC "-//W3C//DTD SVG 1.1//EN"
 "http://www.w3.org/Graphics/SVG/1.1/DTD/svg11.dtd">
<!-- Generated by graphviz version 2.34.0 (20140121.1604)
 -->
<!-- Title: Headers/Variable.h Pages: 1 -->
<svg width="139pt" height="140pt"
 viewBox="0.00 0.00 139.00 140.00" xmlns="http://www.w3.org/2000/svg" xmlns:xlink="http://www.w3.org/1999/xlink">
<g id="graph0" class="graph" transform="scale(1 1) rotate(0) translate(4 136)">
<title>Headers/Variable.h</title>
<!-- Node1 -->
<g id="node1" class="node"><title>Node1</title>
<polygon fill="#bfbfbf" stroke="black" points="7,-112.5 7,-131.5 115,-131.5 115,-112.5 7,-112.5"/>
<text text-anchor="middle" x="61" y="-119.5" font-family="Helvetica.ttf" font-size="10.00">Headers/Variable.h</text>
</g>
<!-- Node2 -->
<g id="node2" class="node"><title>Node2</title>
<g id="a_node2"><a xlink:href="FileLogger_8h.html" target="_top" xlink:title="FileLogger.h">
<polygon fill="none" stroke="black" points="57,-56.5 57,-75.5 131,-75.5 131,-56.5 57,-56.5"/>
<text text-anchor="middle" x="94" y="-63.5" font-family="Helvetica.ttf" font-size="10.00">FileLogger.h</text>
</a>
</g>
</g>
<!-- Node1&#45;&gt;Node2 -->
<g id="edge1" class="edge"><title>Node1&#45;&gt;Node2</title>
<path fill="none" stroke="midnightblue" d="M66.4493,-112.083C71.0145,-104.613 77.6684,-93.7244 83.2934,-84.5199"/>
<polygon fill="midnightblue" stroke="midnightblue" points="86.4241,-86.109 88.6521,-75.7511 80.4511,-82.4588 86.4241,-86.109"/>
</g>
<!-- Node3 -->
<g id="node3" class="node"><title>Node3</title>
<polygon fill="none" stroke="#bfbfbf" points="-0.5,-0.5 -0.5,-19.5 58.5,-19.5 58.5,-0.5 -0.5,-0.5"/>
<text text-anchor="middle" x="29" y="-7.5" font-family="Helvetica.ttf" font-size="10.00">iostream</text>
</g>
<!-- Node1&#45;&gt;Node3 -->
<g id="edge4" class="edge"><title>Node1&#45;&gt;Node3</title>
<path fill="none" stroke="midnightblue" d="M58.489,-112.368C53.3016,-94.5366 41.3041,-53.2953 34.3154,-29.2717"/>
<polygon fill="midnightblue" stroke="midnightblue" points="37.6534,-28.2157 31.4993,-19.5914 30.932,-30.1711 37.6534,-28.2157"/>
</g>
<!-- Node2&#45;&gt;Node3 -->
<g id="edge2" class="edge"><title>Node2&#45;&gt;Node3</title>
<path fill="none" stroke="midnightblue" d="M83.5566,-56.324C73.8538,-48.2631 59.1847,-36.0765 47.5003,-26.3695"/>
<polygon fill="midnightblue" stroke="midnightblue" points="49.5619,-23.532 39.6334,-19.8339 45.0887,-28.9163 49.5619,-23.532"/>
</g>
<!-- Node4 -->
<g id="node4" class="node"><title>Node4</title>
<polygon fill="none" stroke="#bfbfbf" points="77,-0.5 77,-19.5 131,-19.5 131,-0.5 77,-0.5"/>
<text text-anchor="middle" x="104" y="-7.5" font-family="Helvetica.ttf" font-size="10.00">fstream</text>
</g>
<!-- Node2&#45;&gt;Node4 -->
<g id="edge3" class="edge"><title>Node2&#45;&gt;Node4</title>
<path fill="none" stroke="midnightblue" d="M95.6513,-56.083C96.9764,-48.9272 98.8824,-38.6353 100.539,-29.6911"/>
<polygon fill="midnightblue" stroke="midnightblue" points="104,-30.2212 102.379,-19.7511 97.117,-28.9466 104,-30.2212"/>
</g>
</g>
</svg>
